<mxfile host="app.diagrams.net" modified="2020-10-02T18:25:47.991Z" agent="5.0 (Windows NT 10.0; Win64; x64) AppleWebKit/537.36 (KHTML, like Gecko) Chrome/85.0.4183.121 Safari/537.36" etag="k-yGwfNk-ROPHlljY1RU" version="13.7.7" type="github">
  <diagram id="FGMF2oB-S9NWEvdEfwFm" name="Page-1">
    <mxGraphModel dx="782" dy="437" grid="1" gridSize="10" guides="1" tooltips="1" connect="1" arrows="1" fold="1" page="1" pageScale="1" pageWidth="827" pageHeight="1169" math="0" shadow="0">
      <root>
        <mxCell id="0" />
        <mxCell id="1" parent="0" />
        <mxCell id="tSVCabWy7tUp0yIeYphf-1" value="&lt;font size=&quot;1&quot;&gt;artist&lt;/font&gt;" style="rounded=0;whiteSpace=wrap;html=1;" vertex="1" parent="1">
          <mxGeometry x="170" y="130" width="120" height="60" as="geometry" />
        </mxCell>
        <mxCell id="tSVCabWy7tUp0yIeYphf-2" value="number of members" style="ellipse;whiteSpace=wrap;html=1;" vertex="1" parent="1">
          <mxGeometry x="80" y="10" width="90" height="60" as="geometry" />
        </mxCell>
        <mxCell id="tSVCabWy7tUp0yIeYphf-3" value="year started recoding" style="ellipse;whiteSpace=wrap;html=1;" vertex="1" parent="1">
          <mxGeometry x="190" y="10" width="90" height="60" as="geometry" />
        </mxCell>
        <mxCell id="tSVCabWy7tUp0yIeYphf-4" value="genre of music it plays" style="ellipse;whiteSpace=wrap;html=1;" vertex="1" parent="1">
          <mxGeometry x="10" y="90" width="90" height="60" as="geometry" />
        </mxCell>
        <mxCell id="tSVCabWy7tUp0yIeYphf-5" value="&lt;u&gt;name&lt;/u&gt;" style="ellipse;whiteSpace=wrap;html=1;" vertex="1" parent="1">
          <mxGeometry x="300" y="10" width="90" height="60" as="geometry" />
        </mxCell>
        <mxCell id="tSVCabWy7tUp0yIeYphf-11" value="" style="endArrow=none;html=1;entryX=0.5;entryY=1;entryDx=0;entryDy=0;" edge="1" parent="1" source="tSVCabWy7tUp0yIeYphf-1" target="tSVCabWy7tUp0yIeYphf-3">
          <mxGeometry width="50" height="50" relative="1" as="geometry">
            <mxPoint x="380" y="250" as="sourcePoint" />
            <mxPoint x="430" y="200" as="targetPoint" />
          </mxGeometry>
        </mxCell>
        <mxCell id="tSVCabWy7tUp0yIeYphf-12" value="" style="endArrow=none;html=1;entryX=0.807;entryY=0.989;entryDx=0;entryDy=0;entryPerimeter=0;exitX=0.5;exitY=0;exitDx=0;exitDy=0;" edge="1" parent="1" source="tSVCabWy7tUp0yIeYphf-1" target="tSVCabWy7tUp0yIeYphf-2">
          <mxGeometry width="50" height="50" relative="1" as="geometry">
            <mxPoint x="380" y="250" as="sourcePoint" />
            <mxPoint x="430" y="200" as="targetPoint" />
          </mxGeometry>
        </mxCell>
        <mxCell id="tSVCabWy7tUp0yIeYphf-14" value="" style="endArrow=none;html=1;" edge="1" parent="1" target="tSVCabWy7tUp0yIeYphf-4">
          <mxGeometry width="50" height="50" relative="1" as="geometry">
            <mxPoint x="230" y="130" as="sourcePoint" />
            <mxPoint x="430" y="200" as="targetPoint" />
          </mxGeometry>
        </mxCell>
        <mxCell id="tSVCabWy7tUp0yIeYphf-15" value="" style="endArrow=none;html=1;exitX=0.572;exitY=0.044;exitDx=0;exitDy=0;exitPerimeter=0;entryX=0.385;entryY=1.022;entryDx=0;entryDy=0;entryPerimeter=0;" edge="1" parent="1" source="tSVCabWy7tUp0yIeYphf-1" target="tSVCabWy7tUp0yIeYphf-5">
          <mxGeometry width="50" height="50" relative="1" as="geometry">
            <mxPoint x="380" y="250" as="sourcePoint" />
            <mxPoint x="430" y="200" as="targetPoint" />
          </mxGeometry>
        </mxCell>
        <mxCell id="tSVCabWy7tUp0yIeYphf-16" value="musician" style="rounded=0;whiteSpace=wrap;html=1;" vertex="1" parent="1">
          <mxGeometry x="470" y="130" width="120" height="60" as="geometry" />
        </mxCell>
        <mxCell id="tSVCabWy7tUp0yIeYphf-17" value="&lt;u&gt;SIN&lt;/u&gt;" style="ellipse;whiteSpace=wrap;html=1;" vertex="1" parent="1">
          <mxGeometry x="450" width="90" height="60" as="geometry" />
        </mxCell>
        <mxCell id="tSVCabWy7tUp0yIeYphf-18" value="first name" style="ellipse;whiteSpace=wrap;html=1;" vertex="1" parent="1">
          <mxGeometry x="550" width="90" height="60" as="geometry" />
        </mxCell>
        <mxCell id="tSVCabWy7tUp0yIeYphf-19" value="last name" style="ellipse;whiteSpace=wrap;html=1;" vertex="1" parent="1">
          <mxGeometry x="650" width="90" height="60" as="geometry" />
        </mxCell>
        <mxCell id="tSVCabWy7tUp0yIeYphf-20" value="instrument" style="ellipse;whiteSpace=wrap;html=1;" vertex="1" parent="1">
          <mxGeometry x="680" y="80" width="90" height="60" as="geometry" />
        </mxCell>
        <mxCell id="tSVCabWy7tUp0yIeYphf-21" value="email address" style="ellipse;whiteSpace=wrap;html=1;" vertex="1" parent="1">
          <mxGeometry x="680" y="160" width="90" height="60" as="geometry" />
        </mxCell>
        <mxCell id="tSVCabWy7tUp0yIeYphf-22" value="percentage share of revenue from songs" style="ellipse;whiteSpace=wrap;html=1;" vertex="1" parent="1">
          <mxGeometry x="680" y="240" width="90" height="60" as="geometry" />
        </mxCell>
        <mxCell id="tSVCabWy7tUp0yIeYphf-23" value="" style="endArrow=none;html=1;exitX=0.5;exitY=0;exitDx=0;exitDy=0;entryX=0.5;entryY=1;entryDx=0;entryDy=0;" edge="1" parent="1" source="tSVCabWy7tUp0yIeYphf-16" target="tSVCabWy7tUp0yIeYphf-17">
          <mxGeometry width="50" height="50" relative="1" as="geometry">
            <mxPoint x="390" y="210" as="sourcePoint" />
            <mxPoint x="440" y="160" as="targetPoint" />
          </mxGeometry>
        </mxCell>
        <mxCell id="tSVCabWy7tUp0yIeYphf-24" value="" style="endArrow=none;html=1;exitX=0.5;exitY=0;exitDx=0;exitDy=0;entryX=0.5;entryY=1;entryDx=0;entryDy=0;" edge="1" parent="1" source="tSVCabWy7tUp0yIeYphf-16" target="tSVCabWy7tUp0yIeYphf-18">
          <mxGeometry width="50" height="50" relative="1" as="geometry">
            <mxPoint x="390" y="210" as="sourcePoint" />
            <mxPoint x="440" y="160" as="targetPoint" />
          </mxGeometry>
        </mxCell>
        <mxCell id="tSVCabWy7tUp0yIeYphf-25" value="" style="endArrow=none;html=1;entryX=0.43;entryY=1.022;entryDx=0;entryDy=0;entryPerimeter=0;" edge="1" parent="1" target="tSVCabWy7tUp0yIeYphf-19">
          <mxGeometry width="50" height="50" relative="1" as="geometry">
            <mxPoint x="540" y="130" as="sourcePoint" />
            <mxPoint x="440" y="160" as="targetPoint" />
          </mxGeometry>
        </mxCell>
        <mxCell id="tSVCabWy7tUp0yIeYphf-26" value="" style="endArrow=none;html=1;entryX=0;entryY=0.5;entryDx=0;entryDy=0;exitX=0.989;exitY=0.389;exitDx=0;exitDy=0;exitPerimeter=0;" edge="1" parent="1" source="tSVCabWy7tUp0yIeYphf-16" target="tSVCabWy7tUp0yIeYphf-20">
          <mxGeometry width="50" height="50" relative="1" as="geometry">
            <mxPoint x="390" y="210" as="sourcePoint" />
            <mxPoint x="440" y="160" as="targetPoint" />
          </mxGeometry>
        </mxCell>
        <mxCell id="tSVCabWy7tUp0yIeYphf-28" value="" style="endArrow=none;html=1;entryX=0.022;entryY=0.344;entryDx=0;entryDy=0;entryPerimeter=0;exitX=1;exitY=0.5;exitDx=0;exitDy=0;" edge="1" parent="1" source="tSVCabWy7tUp0yIeYphf-16" target="tSVCabWy7tUp0yIeYphf-21">
          <mxGeometry width="50" height="50" relative="1" as="geometry">
            <mxPoint x="390" y="210" as="sourcePoint" />
            <mxPoint x="440" y="160" as="targetPoint" />
          </mxGeometry>
        </mxCell>
        <mxCell id="tSVCabWy7tUp0yIeYphf-29" value="" style="endArrow=none;html=1;entryX=-0.007;entryY=0.244;entryDx=0;entryDy=0;entryPerimeter=0;exitX=1;exitY=0.5;exitDx=0;exitDy=0;" edge="1" parent="1" source="tSVCabWy7tUp0yIeYphf-16" target="tSVCabWy7tUp0yIeYphf-22">
          <mxGeometry width="50" height="50" relative="1" as="geometry">
            <mxPoint x="390" y="210" as="sourcePoint" />
            <mxPoint x="440" y="160" as="targetPoint" />
          </mxGeometry>
        </mxCell>
      </root>
    </mxGraphModel>
  </diagram>
</mxfile>
